# xmcd
#
# Track frame offsets:
#	150
#	22378
#	37426
#	82168
#	97005
#	119190
#	138105
#	163269
#	173980
#
# Disc length: 2503 seconds
#
# Revision: 0
# Processed by: cddbd v1.4PL0 Copyright (c) Steve Scherf et al.
# Submitted via: audiograbber 1.81.01
#
DISCID=8d09c509
DTITLE=Scotty and the Soultones - Soultones Groove
DYEAR=2003
DGENRE=Blues
TTITLE0=Soultones Groove
TTITLE1=Baby Come Home
TTITLE2=Welfare Aint Funny
TTITLE3=Anytime You Need A Friend
TTITLE4=K-9 Blues
TTITLE5=For Her Love
TTITLE6=3 am
TTITLE7=The Phone Call
TTITLE8=Shes All Mine
EXTD=
EXTT0=
EXTT1=
EXTT2=
EXTT3=
EXTT4=
EXTT5=
EXTT6=
EXTT7=
EXTT8=
PLAYORDER=
